# Blender 4.0.2
# www.blender.org
mtllib crate.mtl
o Cube
v 1.000000 1.000000 -1.000000
v 1.000000 -1.000000 -1.000000
v 1.000000 1.000000 1.000000
v 1.000000 -1.000000 1.000000
v -1.000000 1.000000 -1.000000
v -1.000000 -1.000000 -1.000000
v -1.000000 1.000000 1.000000
v -1.000000 -1.000000 1.000000
v 0.765404 1.000000 -0.765404
v -0.765404 1.000000 -0.765404
v -0.765404 1.000000 0.765404
v 0.765404 1.000000 0.765404
v 0.765404 -0.765404 1.000000
v 0.765404 0.765404 1.000000
v -0.765404 0.765404 1.000000
v -0.765404 -0.765404 1.000000
v -1.000000 -0.765404 0.765404
v -1.000000 0.765404 0.765404
v -1.000000 0.765404 -0.765404
v -1.000000 -0.765404 -0.765404
v -0.765404 -1.000000 -0.765404
v 0.765404 -1.000000 -0.765404
v 0.765404 -1.000000 0.765404
v -0.765404 -1.000000 0.765404
v 1.000000 -0.765404 -0.765404
v 1.000000 0.765404 -0.765404
v 1.000000 0.765404 0.765404
v 1.000000 -0.765404 0.765404
v -0.765404 -0.765404 -1.000000
v -0.765404 0.765404 -1.000000
v 0.765404 0.765404 -1.000000
v 0.765404 -0.765404 -1.000000
v 0.765404 1.000000 -0.765404
v -0.765404 1.000000 -0.765404
v -0.765404 1.000000 0.765404
v 0.765404 1.000000 0.765404
v 0.765404 -0.765404 1.000000
v 0.765404 0.765404 1.000000
v -0.765404 0.765404 1.000000
v -0.765404 -0.765404 1.000000
v -1.000000 -0.765404 0.765404
v -1.000000 0.765404 0.765404
v -1.000000 0.765404 -0.765404
v -1.000000 -0.765404 -0.765404
v -0.765404 -1.000000 -0.765404
v 0.765404 -1.000000 -0.765404
v 0.765404 -1.000000 0.765404
v -0.765404 -1.000000 0.765404
v 1.000000 -0.765404 -0.765404
v 1.000000 0.765404 -0.765404
v 1.000000 0.765404 0.765404
v 1.000000 -0.765404 0.765404
v -0.765404 -0.765404 -1.000000
v -0.765404 0.765404 -1.000000
v 0.765404 0.765404 -1.000000
v 0.765404 -0.765404 -1.000000
v 0.765404 0.842488 -0.765404
v -0.765404 0.842488 -0.765404
v -0.765404 0.842488 0.765404
v 0.765404 0.842488 0.765404
v 0.765404 -0.765404 0.842488
v 0.765404 0.765404 0.842488
v -0.765404 0.765404 0.842488
v -0.765404 -0.765404 0.842488
v -0.842488 -0.765404 0.765404
v -0.842488 0.765404 0.765404
v -0.842488 0.765404 -0.765404
v -0.842488 -0.765404 -0.765404
v -0.765404 -0.842488 -0.765404
v 0.765404 -0.842488 -0.765404
v 0.765404 -0.842488 0.765404
v -0.765404 -0.842488 0.765404
v 0.842488 -0.765404 -0.765404
v 0.842488 0.765404 -0.765404
v 0.842488 0.765404 0.765404
v 0.842488 -0.765404 0.765404
v -0.765404 -0.765404 -0.842488
v -0.765404 0.765404 -0.842488
v 0.765404 0.765404 -0.842488
v 0.765404 -0.765404 -0.842488
vn -0.0000 1.0000 -0.0000
vn -0.0000 -0.0000 1.0000
vn -1.0000 -0.0000 -0.0000
vn -0.0000 -1.0000 -0.0000
vn 1.0000 -0.0000 -0.0000
vn -0.0000 -0.0000 -1.0000
vt 0.333010 0.287646
vt 0.333010 0.287693
vt 0.333010 0.287739
vt 0.333010 0.287785
vt 0.778386 0.020340
vt 0.637880 0.020340
vt 0.654361 0.003859
vt 0.761905 0.003859
vt 0.719474 0.021885
vt 0.578968 0.021885
vt 0.595449 0.005404
vt 0.702993 0.005404
vt 0.392949 0.000749
vt 0.533455 0.000749
vt 0.516974 0.017230
vt 0.409430 0.017230
vt 0.256536 0.106167
vt 0.397042 0.106167
vt 0.380561 0.122648
vt 0.273017 0.122648
vt 0.821787 0.996443
vt 0.681281 0.996443
vt 0.697762 0.979962
vt 0.805306 0.979962
vt 0.385198 0.341277
vt 0.525704 0.341277
vt 0.509223 0.357758
vt 0.401679 0.357758
vt 0.814246 0.997653
vt 0.679539 0.997653
vt 0.695339 0.981852
vt 0.798445 0.981852
vt 0.271471 0.484883
vt 0.130966 0.484883
vt 0.147447 0.468402
vt 0.254990 0.468402
vt 0.847612 1.000167
vt 0.707106 0.999951
vt 0.723612 0.983495
vt 0.831156 0.983661
vt 0.771669 0.998504
vt 0.631163 0.998504
vt 0.647644 0.982023
vt 0.755188 0.982023
vt 0.743770 1.000059
vt 0.603264 1.000059
vt 0.619745 0.983578
vt 0.727289 0.983578
vt 0.794922 0.998514
vt 0.654416 0.998514
vt 0.670897 0.982032
vt 0.778441 0.982032
vt 0.151591 0.043077
vt 0.011085 0.043077
vt 0.027566 0.026596
vt 0.135110 0.026596
vt 0.480228 0.094229
vt 0.339722 0.094229
vt 0.356203 0.077748
vt 0.463747 0.077748
vt 0.310273 0.201759
vt 0.450779 0.201759
vt 0.434298 0.218240
vt 0.326754 0.218240
vt 0.604253 0.077748
vt 0.587772 0.094229
vt 0.818686 0.999028
vt 0.678180 0.999028
vt 0.694661 0.982547
vt 0.802205 0.982547
vt 0.106162 0.007469
vt 0.246668 0.007469
vt 0.230187 0.023950
vt 0.122644 0.023950
vt 0.257524 0.019304
vt 0.117018 0.019304
vt 0.133499 0.002823
vt 0.241043 0.002823
vt 0.192411 0.461114
vt 0.051906 0.461114
vt 0.068387 0.444633
vt 0.175930 0.444633
vt 0.180524 0.066841
vt 0.040018 0.066841
vt 0.056499 0.050360
vt 0.164043 0.050360
vt 0.598094 0.005400
vt 0.738599 0.005400
vt 0.722118 0.021881
vt 0.614575 0.021881
vt 0.538629 0.093194
vt 0.398123 0.093194
vt 0.414604 0.076713
vt 0.522148 0.076713
vt 0.730848 0.020340
vt 0.590343 0.020340
vt 0.606824 0.003859
vt 0.714367 0.003859
vt 0.755695 0.995968
vt 0.648151 0.995968
vt 0.648151 0.984902
vt 0.755695 0.984902
vt 0.609657 0.984902
vt 0.717201 0.984902
vt 0.717201 0.995968
vt 0.609657 0.995968
vt 0.366720 0.535742
vt 0.366720 0.428198
vt 0.377786 0.428198
vt 0.377786 0.535742
vt 0.481710 0.091058
vt 0.374167 0.091058
vt 0.374167 0.079992
vt 0.481710 0.079992
vt 0.631881 0.984902
vt 0.739425 0.984902
vt 0.739425 0.995967
vt 0.631881 0.995967
vt 0.568584 0.471787
vt 0.676128 0.471787
vt 0.676128 0.482852
vt 0.568584 0.482852
vt 0.333010 0.287832
vt 0.333010 0.287878
vt 0.440554 0.287600
vt 0.333010 0.287600
vt 0.333010 0.180056
vt 0.440554 0.180056
vt 0.192458 0.428152
vt 0.192458 0.320608
vt 0.300002 0.320608
vt 0.300002 0.428152
vt 0.300048 0.428152
vt 0.300048 0.320608
vt 0.407592 0.320608
vt 0.407592 0.428152
vt 0.515182 0.428152
vt 0.407638 0.428152
vt 0.407638 0.320608
vt 0.515182 0.320608
vt 0.440600 0.287600
vt 0.440600 0.180056
vt 0.548144 0.180056
vt 0.548144 0.287600
vt 0.192458 0.535742
vt 0.192458 0.428198
vt 0.300002 0.428198
vt 0.300002 0.535742
vt 0.499086 0.498140
vt 0.606629 0.498140
vt 0.606629 0.509206
vt 0.499086 0.509206
vt 0.602306 0.004032
vt 0.709850 0.004032
vt 0.709850 0.015098
vt 0.602306 0.015098
vt 0.727163 0.605723
vt 0.619619 0.605723
vt 0.619619 0.594657
vt 0.727163 0.594657
vt 0.682850 0.481302
vt 0.575306 0.481302
vt 0.575306 0.470237
vt 0.682850 0.470237
vt 0.624530 0.004032
vt 0.732074 0.004032
vt 0.732074 0.015098
vt 0.624530 0.015098
vt 0.926427 0.888377
vt 0.818884 0.888377
vt 0.818884 0.877312
vt 0.926427 0.877312
vt 0.682148 0.081542
vt 0.789692 0.081542
vt 0.789692 0.092608
vt 0.682148 0.092608
vt 0.583514 0.278936
vt 0.691058 0.278936
vt 0.691058 0.290002
vt 0.583514 0.290002
vt 0.725936 0.984902
vt 0.833479 0.984902
vt 0.833479 0.995968
vt 0.725936 0.995968
vt 0.693260 0.081542
vt 0.800804 0.081542
vt 0.800804 0.092608
vt 0.693260 0.092608
vt 0.308196 0.479752
vt 0.200652 0.479752
vt 0.200652 0.468686
vt 0.308196 0.468686
vt 0.428792 0.392727
vt 0.536336 0.392727
vt 0.536336 0.403793
vt 0.428792 0.403793
vt 0.794985 0.995968
vt 0.687441 0.995968
vt 0.687441 0.984902
vt 0.794985 0.984902
vt 0.608642 0.470237
vt 0.716186 0.470237
vt 0.716186 0.481302
vt 0.608642 0.481302
vt 0.330420 0.479752
vt 0.222876 0.479752
vt 0.222876 0.468686
vt 0.330420 0.468686
vt 0.612583 0.507656
vt 0.505039 0.507656
vt 0.505039 0.496590
vt 0.612583 0.496590
vt 0.828321 0.995968
vt 0.720777 0.995968
vt 0.720777 0.984902
vt 0.828321 0.984902
vt 0.341532 0.479752
vt 0.233988 0.479752
vt 0.233988 0.468686
vt 0.341532 0.468686
s 0
usemtl Material
f 16/1/1 13/1/1 37/1/1 40/1/1
f 17/2/1 18/2/1 42/2/1 41/2/1
f 12/3/1 9/3/1 33/3/1 36/3/1
f 13/1/1 14/1/1 38/1/1 37/1/1
f 9/3/1 10/3/1 34/3/1 33/3/1
f 31/4/1 32/4/1 56/4/1 55/4/1
f 1/5/1 5/6/1 10/7/1 9/8/1
f 5/9/1 7/10/1 11/11/1 10/12/1
f 7/13/1 3/14/1 12/15/1 11/16/1
f 3/17/1 1/18/1 9/19/1 12/20/1
f 4/21/2 3/22/2 14/23/2 13/24/2
f 3/25/2 7/26/2 15/27/2 14/28/2
f 7/29/2 8/30/2 16/31/2 15/32/2
f 8/33/2 4/34/2 13/35/2 16/36/2
f 8/37/3 7/38/3 18/39/3 17/40/3
f 7/41/3 5/42/3 19/43/3 18/44/3
f 5/45/3 6/46/3 20/47/3 19/48/3
f 6/49/3 8/50/3 17/51/3 20/52/3
f 6/53/4 2/54/4 22/55/4 21/56/4
f 2/57/4 4/58/4 23/59/4 22/60/4
f 4/61/4 8/62/4 24/63/4 23/64/4
f 8/60/4 6/65/4 21/66/4 24/57/4
f 2/67/5 1/68/5 26/69/5 25/70/5
f 1/71/5 3/72/5 27/73/5 26/74/5
f 3/75/5 4/76/5 28/77/5 27/78/5
f 4/79/5 2/80/5 25/81/5 28/82/5
f 6/83/6 5/84/6 30/85/6 29/86/6
f 5/87/6 1/88/6 31/89/6 30/90/6
f 1/91/6 2/92/6 32/93/6 31/94/6
f 2/95/6 6/96/6 29/97/6 32/98/6
f 37/99/3 38/100/3 62/101/3 61/102/3
f 43/103/2 44/104/2 68/105/2 67/106/2
f 50/107/4 51/108/4 75/109/4 74/110/4
f 35/111/6 36/112/6 60/113/6 59/114/6
f 42/115/4 43/116/4 67/117/4 66/118/4
f 52/119/1 49/120/1 73/121/1 76/122/1
f 21/123/1 22/123/1 46/123/1 45/123/1
f 10/3/1 11/3/1 35/3/1 34/3/1
f 20/2/1 17/2/1 41/2/1 44/2/1
f 25/124/1 26/124/1 50/124/1 49/124/1
f 14/1/1 15/1/1 39/1/1 38/1/1
f 24/123/1 21/123/1 45/123/1 48/123/1
f 29/4/1 30/4/1 54/4/1 53/4/1
f 11/3/1 12/3/1 36/3/1 35/3/1
f 18/2/1 19/2/1 43/2/1 42/2/1
f 28/124/1 25/124/1 49/124/1 52/124/1
f 15/1/1 16/1/1 40/1/1 39/1/1
f 22/123/1 23/123/1 47/123/1 46/123/1
f 32/4/1 29/4/1 53/4/1 56/4/1
f 19/2/1 20/2/1 44/2/1 43/2/1
f 26/124/1 27/124/1 51/124/1 50/124/1
f 23/123/1 24/123/1 48/123/1 47/123/1
f 30/4/1 31/4/1 55/4/1 54/4/1
f 27/124/1 28/124/1 52/124/1 51/124/1
f 57/125/1 58/126/1 59/127/1 60/128/1
f 61/129/2 62/130/2 63/131/2 64/132/2
f 65/133/3 66/134/3 67/135/3 68/136/3
f 69/137/4 70/138/4 71/139/4 72/140/4
f 73/141/5 74/142/5 75/143/5 76/144/5
f 77/145/6 78/146/6 79/147/6 80/148/6
f 51/149/6 52/150/6 76/151/6 75/152/6
f 45/153/2 46/154/2 70/155/2 69/156/2
f 40/157/1 37/158/1 61/159/1 64/160/1
f 53/161/5 54/162/5 78/163/5 77/164/5
f 48/165/5 45/166/5 69/167/5 72/168/5
f 38/169/4 39/170/4 63/171/4 62/172/4
f 56/173/1 53/174/1 77/175/1 80/176/1
f 46/177/3 47/178/3 71/179/3 70/180/3
f 39/181/5 40/182/5 64/183/5 63/184/5
f 54/185/4 55/186/4 79/187/4 78/188/4
f 33/189/2 34/190/2 58/191/2 57/192/2
f 47/193/6 48/194/6 72/195/6 71/196/6
f 41/197/6 42/198/6 66/199/6 65/200/6
f 55/201/3 56/202/3 80/203/3 79/204/3
f 36/205/3 33/206/3 57/207/3 60/208/3
f 49/209/2 50/210/2 74/211/2 73/212/2
f 44/213/1 41/214/1 65/215/1 68/216/1
f 34/217/5 35/218/5 59/219/5 58/220/5
o Plane
v -0.765818 -0.576832 -0.842981
v -0.577684 -0.764966 -0.842981
v 0.577077 0.765608 -0.842981
v 0.765210 0.577475 -0.842981
v -0.765465 -0.764613 -0.842981
v 0.765406 0.764991 -0.842981
v -0.765818 -0.576832 -0.967209
v -0.577684 -0.764966 -0.967209
v 0.577077 0.765608 -0.967209
v 0.765210 0.577475 -0.967209
v -0.765465 -0.764613 -0.967209
v 0.765406 0.764991 -0.967209
v -0.765818 -0.576832 0.842981
v -0.577684 -0.764966 0.842981
v 0.577077 0.765608 0.842981
v 0.765210 0.577475 0.842981
v -0.765465 -0.764613 0.842981
v 0.765406 0.764991 0.842981
v -0.765818 -0.576832 0.967209
v -0.577684 -0.764966 0.967209
v 0.577077 0.765608 0.967209
v 0.765210 0.577475 0.967209
v -0.765465 -0.764613 0.967209
v 0.765406 0.764991 0.967209
vn -0.0000 -0.0000 -1.0000
vn -0.0000 -0.0000 1.0000
vn 1.0000 0.0019 -0.0000
vn -0.7070 0.7072 -0.0000
vn 0.7070 -0.7072 -0.0000
vn -1.0000 0.0010 -0.0000
vn -0.0033 -1.0000 -0.0000
vn 0.0019 1.0000 -0.0000
vt 0.156267 0.490650
vt 0.614569 0.490762
vt 0.586464 0.518818
vt 0.184339 0.518818
vt 0.184330 0.462473
vt 0.586455 0.462473
vt 0.279366 0.490701
vt 0.307438 0.462533
vt 0.709563 0.462533
vt 0.737668 0.490589
vt 0.307428 0.518879
vt 0.709553 0.518879
vt 0.595066 0.223729
vt 0.555299 0.223729
vt 0.555299 0.197421
vt 0.595066 0.197421
vt 0.822010 0.224091
vt 0.537416 0.224091
vt 0.537416 0.197782
vt 0.822010 0.197782
vt 0.878829 0.223729
vt 0.878829 0.197421
vt 0.497705 0.224091
vt 0.497705 0.197782
vt 0.733435 0.047377
vt 0.693551 0.047377
vt 0.693551 0.021069
vt 0.733435 0.021069
vt 0.733377 0.134298
vt 0.693609 0.134298
vt 0.693609 0.107990
vt 0.733377 0.107990
s 0
usemtl Material.001
f 85/221/7 86/222/7 84/223/7 82/224/7
f 81/225/7 83/226/7 86/222/7 85/221/7
f 91/227/8 88/228/8 90/229/8 92/230/8
f 87/231/8 91/227/8 92/230/8 89/232/8
f 81/233/9 85/234/9 91/235/9 87/236/9
f 82/237/10 84/238/10 90/239/10 88/240/10
f 83/241/11 81/233/11 87/236/11 89/242/11
f 84/238/12 86/243/12 92/244/12 90/239/12
f 86/245/13 83/246/13 89/247/13 92/248/13
f 85/249/14 82/250/14 88/251/14 91/252/14
f 97/221/8 94/224/8 96/223/8 98/222/8
f 93/225/8 97/221/8 98/222/8 95/226/8
f 103/227/7 104/230/7 102/229/7 100/228/7
f 99/231/7 101/232/7 104/230/7 103/227/7
f 93/233/9 99/236/9 103/235/9 97/234/9
f 94/237/10 100/240/10 102/239/10 96/238/10
f 95/241/11 101/242/11 99/236/11 93/233/11
f 96/238/12 102/239/12 104/244/12 98/243/12
f 98/245/13 104/248/13 101/247/13 95/246/13
f 97/249/14 103/252/14 100/251/14 94/250/14
