# Blender 3.4.1
# www.blender.org
mtllib wooden-box.mtl
o Wooden_box_01.001
v 0.500000 0.500000 0.500000
v 0.500000 -0.500000 0.500000
v 0.399561 -0.399561 0.500000
v 0.399561 0.399561 0.500000
v 0.399561 -0.500000 0.399561
v 0.500000 0.399561 0.399561
v 0.500000 -0.399561 0.399561
v 0.399561 0.500000 0.500000
v 0.500000 0.500000 0.399561
v 0.399561 -0.500000 0.500000
v 0.500000 -0.500000 0.399561
v -0.500000 0.500000 0.500000
v -0.500000 -0.500000 0.500000
v -0.399561 -0.399561 0.500000
v -0.399561 0.399561 0.500000
v -0.399561 -0.500000 0.399561
v -0.500000 -0.399561 0.399561
v -0.399561 0.500000 0.500000
v -0.500000 0.500000 0.399561
v -0.399561 -0.500000 0.500000
v -0.500000 -0.500000 0.399561
v -0.449237 -0.399561 0.399561
v -0.449237 0.399561 0.399561
v -0.399561 -0.449237 0.399561
v 0.399561 -0.449237 0.399561
v 0.500000 0.500000 -0.500000
v 0.500000 -0.500000 -0.500000
v 0.399561 -0.399561 -0.500000
v 0.399561 0.399561 -0.500000
v 0.399561 -0.500000 -0.399561
v 0.500000 0.399561 -0.399561
v 0.500000 -0.399561 -0.399561
v 0.399561 0.500000 -0.500000
v 0.500000 0.500000 -0.399561
v 0.399561 -0.500000 -0.500000
v 0.500000 -0.500000 -0.399561
v -0.500000 0.500000 -0.500000
v -0.500000 -0.500000 -0.500000
v -0.399561 -0.399561 -0.500000
v -0.399561 0.399561 -0.500000
v -0.399561 -0.500000 -0.399561
v -0.500000 0.399561 -0.399561
v -0.399561 0.500000 -0.500000
v -0.500000 0.500000 -0.399561
v -0.399561 -0.500000 -0.500000
v -0.500000 -0.500000 -0.399561
v -0.399561 -0.399561 0.449237
v -0.399561 0.399561 0.449237
v 0.449237 -0.399561 0.399561
v 0.449237 0.399561 0.399561
v 0.399561 -0.399561 0.449237
v 0.399561 0.399561 0.449237
v -0.449237 -0.399561 -0.399561
v -0.449237 0.399561 -0.399561
v -0.399561 -0.449237 -0.399561
v 0.399561 -0.449237 -0.399561
v -0.399561 -0.399561 -0.449237
v -0.399561 0.399561 -0.449237
v 0.449237 -0.399561 -0.399561
v 0.449237 0.399561 -0.399561
v 0.399561 -0.399561 -0.449237
v 0.399561 0.399561 -0.449237
v -0.500000 0.399561 0.399561
v -0.500000 -0.399561 -0.399561
v -0.486928 0.399561 0.399561
v -0.486928 0.328571 0.399561
v -0.486928 0.399561 0.328477
v -0.486928 -0.399561 -0.328145
v -0.486928 -0.328479 -0.399561
v -0.428252 0.399561 0.328477
v -0.428252 0.328571 0.399561
v -0.428252 -0.399561 -0.328145
v -0.428252 -0.328479 -0.399561
v -0.486928 -0.399561 -0.399561
v 0.486928 0.399561 -0.399561
v 0.486928 0.328571 -0.399561
v 0.486928 0.399561 -0.328477
v 0.486928 -0.399561 0.328145
v 0.486928 -0.328479 0.399561
v 0.428252 0.399561 -0.328477
v 0.428252 0.328571 -0.399561
v 0.428252 -0.399561 0.328145
v 0.428252 -0.328479 0.399561
v 0.486928 -0.399561 0.399561
v -0.399561 0.399561 0.486928
v -0.399561 0.328571 0.486928
v -0.328477 0.399561 0.486928
v 0.328145 -0.399561 0.486928
v 0.399561 -0.328479 0.486928
v -0.328477 0.399561 0.428252
v -0.399561 0.328571 0.428252
v 0.328145 -0.399561 0.428252
v 0.399561 -0.328479 0.428252
v 0.399561 -0.399561 0.486928
v 0.399561 0.399561 -0.486928
v 0.399561 0.328571 -0.486928
v 0.328477 0.399561 -0.486928
v -0.328145 -0.399561 -0.486928
v -0.399561 -0.328479 -0.486928
v 0.328477 0.399561 -0.428252
v 0.399561 0.328571 -0.428252
v -0.328145 -0.399561 -0.428252
v -0.399561 -0.328479 -0.428252
v -0.399561 -0.399561 -0.486928
v 0.399561 -0.486928 0.399561
v 0.399561 -0.486928 0.328571
v 0.328477 -0.486928 0.399561
v -0.328145 -0.486928 -0.399561
v -0.399561 -0.486928 -0.328479
v 0.328477 -0.428252 0.399561
v 0.399561 -0.428252 0.328571
v -0.328145 -0.428252 -0.399561
v -0.399561 -0.428252 -0.328479
v -0.399561 -0.486928 -0.399561
vn 1.0000 -0.0000 -0.0000
vn 0.7071 -0.0000 -0.7071
vn -0.0000 -0.0000 1.0000
vn -0.0000 -1.0000 -0.0000
vn -0.0000 1.0000 -0.0000
vn -1.0000 -0.0000 -0.0000
vn -0.0000 -0.7071 0.7071
vn 0.7071 -0.7071 -0.0000
vn -0.0000 -0.0000 -1.0000
vn -0.7071 0.7071 -0.0000
vn -0.0000 0.7071 -0.7071
vn -0.0000 -0.7071 -0.7071
vn -0.0000 0.7071 0.7071
vn -0.7071 -0.0000 0.7071
vn -0.8321 -0.3921 0.3923
vn -0.0000 -0.7069 0.7073
vn -0.8320 -0.3922 0.3924
vn -0.8321 0.3922 -0.3922
vn 0.8321 -0.3921 -0.3923
vn -0.0000 -0.7069 -0.7073
vn 0.8320 -0.3922 -0.3924
vn 0.8321 0.3922 0.3922
vn -0.3923 -0.3921 0.8321
vn -0.7073 -0.7069 -0.0000
vn -0.3924 -0.3922 0.8320
vn 0.3922 0.3922 0.8320
vn 0.7071 0.7071 -0.0000
vn 0.3922 0.3922 0.8321
vn 0.3923 -0.3921 -0.8321
vn 0.7073 -0.7069 -0.0000
vn 0.3924 -0.3922 -0.8320
vn -0.3922 0.3922 -0.8320
vn -0.3922 0.3922 -0.8321
vn 0.3923 -0.8321 -0.3921
vn 0.7073 -0.0000 -0.7069
vn 0.3924 -0.8320 -0.3922
vn -0.3922 -0.8321 0.3922
vt 0.666917 0.986684
vt 0.988484 0.339596
vt 0.659084 0.986683
vt 0.659084 0.668227
vt 0.659857 0.659422
vt 0.666917 0.668227
vt 0.626935 0.698431
vt 0.063441 0.247651
vt 0.070754 0.485756
vt 0.626933 0.956484
vt 0.063441 0.485275
vt 0.026094 0.975505
vt 0.627842 0.627411
vt 0.019125 0.975676
vt 0.699066 0.956484
vt 0.025816 0.248046
vt 0.018611 0.009992
vt 0.699066 0.698427
vt 0.025816 0.010425
vt 0.626935 0.986683
vt 0.956471 0.339596
vt 0.699066 0.986684
vt 0.988484 0.371605
vt 0.627842 0.659422
vt 0.626935 0.668227
vt 0.699065 0.668227
vt 0.659857 0.627411
vt 0.659081 0.330292
vt 0.668659 0.339596
vt 0.338975 0.986683
vt 0.338975 0.668227
vt 0.340032 0.659422
vt 0.659081 0.011838
vt 0.063441 0.010030
vt 0.371122 0.698431
vt 0.070754 0.010514
vt 0.070754 0.248135
vt 0.371122 0.956484
vt 0.372040 0.627411
vt 0.026094 0.737884
vt 0.108759 0.248752
vt 0.626932 0.042034
vt 0.371122 0.986683
vt 0.700670 0.339596
vt 0.626932 0.330292
vt 0.668659 0.371605
vt 0.371122 0.668227
vt 0.372040 0.659422
vt 0.340032 0.627411
vt 0.626932 0.011838
vt 0.093663 0.248754
vt 0.617839 0.052255
vt 0.617839 0.289876
vt 0.108565 0.975285
vt 0.093663 0.486375
vt 0.041188 0.737884
vt 0.381135 0.618323
vt 0.041188 0.975505
vt 0.618756 0.618323
vt 0.004031 0.975676
vt 0.987026 0.986684
vt 0.988484 0.659422
vt 0.666917 0.330292
vt 0.666917 0.011838
vt 0.659857 0.339598
vt 0.987026 0.668227
vt 0.199854 0.737173
vt 0.699065 0.042038
vt 0.161923 0.736803
vt 0.161923 0.974424
vt 0.699065 0.300089
vt 0.116710 0.736673
vt 0.019125 0.738055
vt 0.627842 0.371607
vt 0.025816 0.485669
vt 0.018611 0.485234
vt 0.954877 0.956484
vt 0.954877 0.698427
vt 0.018611 0.247613
vt 0.956471 0.659422
vt 0.699065 0.330292
vt 0.954877 0.986684
vt 0.988484 0.627411
vt 0.699065 0.011838
vt 0.627842 0.339596
vt 0.954876 0.668227
vt 0.659857 0.371607
vt 0.338975 0.330292
vt 0.668659 0.659422
vt 0.987028 0.330292
vt 0.987028 0.011839
vt 0.340030 0.339598
vt 0.338975 0.011838
vt 0.154168 0.737263
vt 0.199854 0.974793
vt 0.954877 0.042038
vt 0.116710 0.974296
vt 0.154168 0.974884
vt 0.954877 0.300089
vt 0.019125 0.500434
vt 0.026094 0.500263
vt 0.372038 0.371607
vt 0.093469 0.737665
vt 0.371122 0.300087
vt 0.954877 0.330292
vt 0.700670 0.659422
vt 0.371122 0.330292
vt 0.668659 0.627411
vt 0.954877 0.011839
vt 0.372040 0.339598
vt 0.371122 0.011838
vt 0.340030 0.371607
vt 0.380218 0.708644
vt 0.048346 0.010029
vt 0.085849 0.010514
vt 0.380218 0.946265
vt 0.085849 0.248135
vt 0.708162 0.708645
vt 0.040911 0.010425
vt 0.003517 0.009992
vt 0.708162 0.946266
vt 0.040911 0.248047
vt 0.048346 0.247652
vt 0.617839 0.708644
vt 0.085849 0.485756
vt 0.048346 0.485275
vt 0.617839 0.946265
vt 0.108565 0.500043
vt 0.093663 0.011133
vt 0.380218 0.052255
vt 0.108565 0.737662
vt 0.380218 0.289876
vt 0.041188 0.500263
vt 0.004031 0.500434
vt 0.381135 0.380702
vt 0.618756 0.380702
vt 0.004031 0.738055
vt 0.945784 0.052255
vt 0.139073 0.737262
vt 0.184759 0.974794
vt 0.945784 0.289876
vt 0.131805 0.974296
vt 0.139073 0.974884
vt 0.945783 0.708645
vt 0.003517 0.247613
vt 0.003517 0.485234
vt 0.945783 0.946266
vt 0.040911 0.485669
vt 0.708163 0.052255
vt 0.184759 0.737173
vt 0.177018 0.736803
vt 0.708163 0.289876
vt 0.131805 0.736674
vt 0.177018 0.974423
vt 0.093469 0.975285
vt 0.108759 0.486375
vt 0.626932 0.300089
vt 0.108759 0.011133
vt 0.093469 0.500043
vt 0.371122 0.042034
vt 0.224175 0.715389
vt 0.239380 0.700199
vt 0.208950 0.700186
vt 0.239381 0.388785
vt 0.208939 0.388721
vt 0.191200 0.700187
vt 0.257138 0.700196
vt 0.257122 0.388783
vt 0.191189 0.388723
vt 0.224125 0.373515
vt 0.150037 0.353445
vt 0.165243 0.338256
vt 0.134814 0.338242
vt 0.165244 0.026842
vt 0.134803 0.026779
vt 0.117065 0.338244
vt 0.183002 0.338253
vt 0.182986 0.026841
vt 0.117053 0.026780
vt 0.149989 0.011570
vt 0.150020 0.373139
vt 0.165216 0.388327
vt 0.134817 0.388340
vt 0.165276 0.699739
vt 0.134804 0.699803
vt 0.117070 0.388338
vt 0.182978 0.388326
vt 0.183015 0.699739
vt 0.117053 0.699802
vt 0.150010 0.715013
vt 0.298155 0.011838
vt 0.313352 0.027026
vt 0.282950 0.027040
vt 0.313410 0.338440
vt 0.282936 0.338504
vt 0.265202 0.027039
vt 0.331111 0.027026
vt 0.331149 0.338438
vt 0.265186 0.338501
vt 0.298142 0.353713
vt 0.298175 0.715281
vt 0.313367 0.700092
vt 0.282959 0.700078
vt 0.313390 0.388678
vt 0.282927 0.388613
vt 0.265200 0.700079
vt 0.331127 0.700092
vt 0.331129 0.388678
vt 0.265186 0.388615
vt 0.298119 0.373407
s 1
usemtl Wooden_box_01_mtl.001
f 41/101/1 24/56/2 16/40/2
f 1/3/3 8/20/3 4/10/3
f 1/1/1 6/15/1 9/22/1
f 10/25/3 2/4/3 3/7/3
f 2/6/1 6/15/1 1/1/1
f 2/6/1 11/26/1 7/18/1
f 35/85/4 41/102/4 45/110/4
f 15/38/3 8/20/3 18/43/3
f 1/3/3 3/7/3 2/4/3
f 16/39/4 10/24/4 20/48/4
f 1/2/5 9/23/5 8/21/5
f 10/24/4 11/27/4 2/5/4
f 14/35/3 10/25/3 3/7/3
f 32/78/1 11/26/1 36/86/1
f 31/77/1 9/22/1 6/15/1
f 8/21/5 34/83/5 33/80/5
f 12/30/3 15/38/3 18/43/3
f 12/28/6 19/45/6 63/157/6
f 20/47/3 14/35/3 13/31/3
f 63/157/6 13/33/6 12/28/6
f 13/33/6 17/42/6 21/50/6
f 64/159/3 54/131/7 42/103/7
f 15/37/8 52/125/4 4/9/4
f 14/35/3 12/30/3 13/31/3
f 42/103/7 23/54/4 63/155/4
f 33/81/9 40/99/9 43/105/9
f 12/29/5 18/44/5 19/46/5
f 21/49/4 20/48/4 13/32/4
f 3/8/10 47/114/5 14/34/5
f 17/41/11 53/129/5 64/158/5
f 63/156/9 22/51/11 17/41/11
f 7/19/9 50/122/12 6/16/12
f 21/50/6 64/160/6 46/111/6
f 46/112/4 16/39/4 21/49/4
f 58/141/9 61/149/9 57/138/9
f 30/74/4 11/27/4 5/13/4
f 4/11/6 51/123/10 3/8/10
f 31/76/3 59/145/13 32/79/13
f 26/63/9 29/71/9 33/81/9
f 26/61/1 34/82/1 31/77/1
f 35/84/9 28/68/9 27/64/9
f 31/77/1 27/66/1 26/61/1
f 27/66/1 32/78/1 36/86/1
f 59/144/1 50/121/1 49/118/1
f 30/73/14 55/134/3 41/100/3
f 28/68/9 26/63/9 27/64/9
f 29/72/4 58/142/4 40/97/4
f 6/16/12 60/148/4 31/75/4
f 26/62/5 33/80/5 34/83/5
f 36/87/4 35/85/4 27/65/4
f 32/79/13 49/120/5 7/17/5
f 45/109/9 28/68/9 35/84/9
f 40/98/1 57/139/1 39/94/1
f 39/95/5 61/150/5 28/67/5
f 37/90/9 43/105/9 40/99/9
f 37/88/6 42/104/6 44/107/6
f 45/109/9 38/91/9 39/96/9
f 38/93/6 42/104/6 37/88/6
f 38/93/6 46/111/6 64/160/6
f 51/124/3 48/116/3 47/113/3
f 37/90/9 39/96/9 38/91/9
f 16/40/2 25/58/9 5/12/9
f 37/89/5 44/108/5 43/106/5
f 45/110/4 46/112/4 38/92/4
f 14/36/1 48/117/8 15/37/8
f 25/59/4 55/135/4 56/136/4
f 28/69/6 62/154/6 29/70/6
f 54/132/6 22/52/6 23/53/6
f 5/14/6 56/137/14 30/73/14
f 44/107/6 63/157/6 19/45/6
f 74/170/6 66/162/15 65/161/6
f 72/168/16 66/162/15 68/164/17
f 70/166/11 69/165/18 67/163/18
f 67/163/18 74/170/6 65/161/6
f 84/180/1 76/172/19 75/171/1
f 82/178/20 76/172/19 78/174/21
f 80/176/13 79/175/22 77/173/22
f 77/173/22 84/180/1 75/171/1
f 86/182/23 94/190/3 85/181/3
f 86/182/23 92/188/24 88/184/25
f 87/183/26 93/189/27 90/186/27
f 85/181/3 89/185/28 87/183/26
f 96/192/29 104/200/9 95/191/9
f 96/192/29 102/198/30 98/194/31
f 97/193/32 103/199/10 100/196/10
f 95/191/9 99/195/33 97/193/32
f 114/210/4 106/202/34 105/201/4
f 112/208/35 106/202/34 108/204/36
f 110/206/14 109/205/37 107/203/37
f 107/203/37 114/210/4 105/201/4
f 44/108/5 18/44/5 43/106/5
f 43/106/5 8/21/5 33/80/5
f 41/101/1 55/133/1 24/56/2
f 2/6/1 7/18/1 6/15/1
f 35/85/4 30/74/4 41/102/4
f 15/38/3 4/10/3 8/20/3
f 1/3/3 4/10/3 3/7/3
f 16/39/4 5/13/4 10/24/4
f 10/24/4 5/13/4 11/27/4
f 14/35/3 20/47/3 10/25/3
f 32/78/1 7/18/1 11/26/1
f 31/77/1 34/82/1 9/22/1
f 8/21/5 9/23/5 34/83/5
f 63/157/6 17/42/6 13/33/6
f 64/159/3 53/128/3 54/131/7
f 15/37/8 48/117/8 52/125/4
f 14/35/3 15/38/3 12/30/3
f 42/103/7 54/131/7 23/54/4
f 33/81/9 29/71/9 40/99/9
f 21/49/4 16/39/4 20/48/4
f 3/8/10 51/123/10 47/114/5
f 17/41/11 22/51/11 53/129/5
f 63/156/9 23/55/9 22/51/11
f 7/19/9 49/119/9 50/122/12
f 21/50/6 17/42/6 64/160/6
f 46/112/4 41/102/4 16/39/4
f 58/141/9 62/152/9 61/149/9
f 30/74/4 36/87/4 11/27/4
f 4/11/6 52/126/6 51/123/10
f 31/76/3 60/146/3 59/145/13
f 31/77/1 32/78/1 27/66/1
f 59/144/1 60/147/1 50/121/1
f 30/73/14 56/137/14 55/134/3
f 28/68/9 29/71/9 26/63/9
f 29/72/4 62/153/4 58/142/4
f 6/16/12 50/122/12 60/148/4
f 36/87/4 30/74/4 35/85/4
f 32/79/13 59/145/13 49/120/5
f 45/109/9 39/96/9 28/68/9
f 40/98/1 58/143/1 57/139/1
f 39/95/5 57/140/5 61/150/5
f 38/93/6 64/160/6 42/104/6
f 51/124/3 52/127/3 48/116/3
f 37/90/9 40/99/9 39/96/9
f 16/40/2 24/56/2 25/58/9
f 45/110/4 41/102/4 46/112/4
f 14/36/1 47/115/1 48/117/8
f 25/59/4 24/57/4 55/135/4
f 28/69/6 61/151/6 62/154/6
f 54/132/6 53/130/6 22/52/6
f 5/14/6 25/60/6 56/137/14
f 44/107/6 42/104/6 63/157/6
f 74/170/6 68/164/17 66/162/15
f 72/168/16 71/167/16 66/162/15
f 70/166/11 73/169/11 69/165/18
f 67/163/18 69/165/18 74/170/6
f 84/180/1 78/174/21 76/172/19
f 82/178/20 81/177/20 76/172/19
f 80/176/13 83/179/13 79/175/22
f 77/173/22 79/175/22 84/180/1
f 86/182/23 88/184/25 94/190/3
f 86/182/23 91/187/24 92/188/24
f 87/183/26 89/185/28 93/189/27
f 85/181/3 94/190/3 89/185/28
f 96/192/29 98/194/31 104/200/9
f 96/192/29 101/197/30 102/198/30
f 97/193/32 99/195/33 103/199/10
f 95/191/9 104/200/9 99/195/33
f 114/210/4 108/204/36 106/202/34
f 112/208/35 111/207/35 106/202/34
f 110/206/14 113/209/14 109/205/37
f 107/203/37 109/205/37 114/210/4
f 44/108/5 19/46/5 18/44/5
f 43/106/5 18/44/5 8/21/5
