# Blender 4.0.2
# www.blender.org
mtllib light_platforms.mtl
o Plane
v -2.503896 0.000000 2.503896
v -1.500557 0.000000 2.503896
v -2.503896 0.000000 1.500557
v -1.500557 0.000000 1.500557
v -2.503896 0.000000 2.503896
v -1.500557 0.000000 2.503896
v -2.503896 0.000000 1.500557
v -1.500557 0.000000 1.500557
v -2.503896 0.050167 2.503896
v -1.500557 0.050167 2.503896
v -2.503896 0.050167 1.500557
v -1.500557 0.050167 1.500557
vn -0.0000 -1.0000 -0.0000
vn -0.0000 -0.0000 -1.0000
vn -0.0000 1.0000 -0.0000
vn -0.0000 -0.0000 1.0000
vn 1.0000 -0.0000 -0.0000
vn -1.0000 -0.0000 -0.0000
vt 0.000000 1.000000
vt 1.000000 0.000000
vt 0.000000 0.000000
vt 1.000000 1.000000
s 0
usemtl Material.002
f 3/1/1 2/2/1 1/3/1
f 7/1/2 12/4/2 8/4/2
f 4/4/3 7/1/3 8/4/3
f 1/3/3 6/2/3 5/3/3
f 2/2/3 8/4/3 6/2/3
f 3/1/3 5/3/3 7/1/3
f 10/2/3 11/1/3 9/3/3
f 6/2/4 9/3/4 5/3/4
f 8/4/5 10/2/5 6/2/5
f 5/3/6 11/1/6 7/1/6
f 3/1/1 4/4/1 2/2/1
f 7/1/2 11/1/2 12/4/2
f 4/4/3 3/1/3 7/1/3
f 1/3/3 2/2/3 6/2/3
f 2/2/3 4/4/3 8/4/3
f 3/1/3 1/3/3 5/3/3
f 10/2/3 12/4/3 11/1/3
f 6/2/4 10/2/4 9/3/4
f 8/4/5 12/4/5 10/2/5
f 5/3/6 9/3/6 11/1/6
o Plane.001
v -2.492983 0.005961 -1.565956
v -1.489643 0.005961 -1.565956
v -2.492983 0.005961 -2.569296
v -1.489643 0.005961 -2.569296
v -2.492983 0.056128 -1.565956
v -1.489643 0.056128 -1.565956
v -2.492983 0.056128 -2.569296
v -1.489643 0.056128 -2.569296
vn -0.0000 -1.0000 -0.0000
vn -0.0000 1.0000 -0.0000
vn 1.0000 -0.0000 -0.0000
vn -1.0000 -0.0000 -0.0000
vn -0.0000 -0.0000 -1.0000
vn -0.0000 -0.0000 1.0000
vt 0.000000 1.000000
vt 1.000000 0.000000
vt 0.000000 0.000000
vt 1.000000 1.000000
s 0
usemtl Material.001
f 15/5/7 14/6/7 13/7/7
f 18/6/8 19/5/8 17/7/8
f 16/8/9 18/6/9 14/6/9
f 13/7/10 19/5/10 15/5/10
f 15/5/11 20/8/11 16/8/11
f 14/6/12 17/7/12 13/7/12
f 15/5/7 16/8/7 14/6/7
f 18/6/8 20/8/8 19/5/8
f 16/8/9 20/8/9 18/6/9
f 13/7/10 17/7/10 19/5/10
f 15/5/11 19/5/11 20/8/11
f 14/6/12 18/6/12 17/7/12
o Plane.002
v 1.500557 0.000000 -1.468708
v 2.503896 0.000000 -1.468708
v 1.500557 0.000000 -2.472048
v 2.503896 0.000000 -2.472048
v 1.500557 0.050167 -1.468708
v 2.503896 0.050167 -1.468708
v 1.500557 0.050167 -2.472048
v 2.503896 0.050167 -2.472048
vn -0.0000 -1.0000 -0.0000
vn -0.0000 1.0000 -0.0000
vn -0.0000 -0.0000 -1.0000
vn -0.0000 -0.0000 1.0000
vn 1.0000 -0.0000 -0.0000
vn -1.0000 -0.0000 -0.0000
vt 0.000000 1.000000
vt 1.000000 0.000000
vt 0.000000 0.000000
vt 1.000000 1.000000
s 0
usemtl Material.002
f 23/9/13 22/10/13 21/11/13
f 26/10/14 27/9/14 25/11/14
f 23/9/15 28/12/15 24/12/15
f 22/10/16 25/11/16 21/11/16
f 24/12/17 26/10/17 22/10/17
f 21/11/18 27/9/18 23/9/18
f 23/9/13 24/12/13 22/10/13
f 26/10/14 28/12/14 27/9/14
f 23/9/15 27/9/15 28/12/15
f 22/10/16 26/10/16 25/11/16
f 24/12/17 28/12/17 26/10/17
f 21/11/18 25/11/18 27/9/18
o Plane.003
v 1.498330 0.000000 2.501670
v 2.501670 0.000000 2.501670
v 1.498330 0.000000 1.498330
v 2.501670 0.000000 1.498330
v 1.498330 0.050167 2.501670
v 2.501670 0.050167 2.501670
v 1.498330 0.050167 1.498330
v 2.501670 0.050167 1.498330
vn -0.0000 -1.0000 -0.0000
vn -0.0000 1.0000 -0.0000
vn -0.0000 -0.0000 -1.0000
vn -0.0000 -0.0000 1.0000
vn 1.0000 -0.0000 -0.0000
vn -1.0000 -0.0000 -0.0000
vt 0.000000 1.000000
vt 1.000000 0.000000
vt 0.000000 0.000000
vt 1.000000 1.000000
s 0
usemtl Material.001
f 31/13/19 30/14/19 29/15/19
f 34/14/20 35/13/20 33/15/20
f 31/13/21 36/16/21 32/16/21
f 30/14/22 33/15/22 29/15/22
f 32/16/23 34/14/23 30/14/23
f 29/15/24 35/13/24 31/13/24
f 31/13/19 32/16/19 30/14/19
f 34/14/20 36/16/20 35/13/20
f 31/13/21 35/13/21 36/16/21
f 30/14/22 34/14/22 33/15/22
f 32/16/23 36/16/23 34/14/23
f 29/15/24 33/15/24 35/13/24
